<svg xmlns="http://www.w3.org/2000/svg" version="1.0" width="8350" height="7550" preserveAspectRatio="xMidYMid meet" style=""><rect id="backgroundrect" width="100%" height="100%" x="0" y="0" fill="none" stroke="none"/>



<g class="currentLayer" style=""><title>Layer 1</title><g id="layer1" fill="#3b3b3b" stroke="none">
 <path d="M6926 5521 c-4 -5 3 -15 14 -21 11 -6 20 -8 20 -5 0 3 11 -2 24 -10 15 -10 26 -12 30 -6 4 5 -3 15 -14 21 -11 6 -20 8 -20 5 0 -3 -11 2 -24 10 -15 10 -26 12 -30 6z" id="svg_1"/>
 <path d="M5096 5432 c-3 -5 3 -17 13 -26 11 -10 22 -13 25 -8 3 5 -3 17 -13 26 -11 10 -22 13 -25 8z" id="svg_2"/>
 <path d="M4160 4691 c-6 -12 -6 -22 -1 -26 6 -3 15 3 21 14 6 12 6 22 1 26 -6 3 -15 -3 -21 -14z" id="svg_3"/>
 <path d="M1536 3471 c-10 -11 -13 -22 -8 -25 5 -3 17 3 26 13 10 11 13 22 8 25 -5 3 -17 -3 -26 -13z" id="svg_4"/>
 <path d="M7098 3453 c-7 -14 -3 -33 6 -33 12 -1 17 28 6 35 -5 3 -10 2 -12 -2z" id="svg_5"/>
 <path d="M6630 3161 c-6 -12 -6 -22 -1 -26 6 -3 15 3 21 14 6 12 6 22 1 26 -6 3 -15 -3 -21 -14z" id="svg_6"/>
 <path d="M1856 3011 c-7 -11 48 -63 57 -54 12 11 8 19 -22 41 -17 12 -32 18 -35 13z" id="svg_7"/>
 <path d="M4506 2932 c-3 -5 8 -21 23 -36 16 -15 31 -23 35 -18 3 5 -8 21 -23 36 -16 15 -31 23 -35 18z" id="svg_8"/>
 <path d="M1936 2922 c-3 -5 8 -21 23 -36 16 -15 31 -23 35 -18 3 5 -8 21 -23 36 -16 15 -31 23 -35 18z" id="svg_9"/>
 <path d="M2067 2783 c-3 -5 29 -44 72 -87 43 -43 81 -74 84 -69 3 5 -29 44 -72 87 -43 43 -81 74 -84 69z" id="svg_10"/>
 <path d="M6249 2772 c-29 -24 -11 -36 20 -13 14 11 19 21 13 25 -5 3 -20 -2 -33 -12z" id="svg_11"/>
 <path d="M6190 2735 c-27 -15 -26 -28 3 -30 19 -2 43 30 29 39 -4 2 -18 -2 -32 -9z" id="svg_12"/>
 <path d="M6085 2676 c-11 -8 -14 -16 -8 -19 6 -4 18 0 28 7 11 8 14 16 8 19 -6 4 -18 0 -28 -7z" id="svg_13"/>
 <path d="M6006 2643 c-3 -4 -12 -8 -19 -9 -7 -1 -25 -8 -42 -15 -16 -7 -33 -13 -37 -14 -5 -2 -10 -4 -13 -5 -3 -1 -9 -3 -14 -4 -5 0 -12 -4 -16 -8 -4 -4 -13 -4 -20 -2 -7 3 -16 1 -19 -5 -4 -6 -13 -8 -20 -5 -8 3 -17 1 -20 -5 -4 -6 -13 -8 -20 -5 -17 7 -30 -12 -16 -21 6 -4 17 -2 24 4 7 6 16 8 19 4 4 -3 13 -1 20 5 8 7 17 9 20 5 4 -3 13 0 22 7 8 7 15 9 15 5 0 -4 7 -2 15 5 8 7 15 9 15 5 0 -4 6 -2 13 4 8 6 16 8 19 5 4 -3 21 3 40 12 18 10 36 18 41 19 8 0 11 14 5 21 -3 2 -8 1 -12 -3z" id="svg_14"/>
 <path d="M2316 2542 c-3 -5 8 -21 23 -36 16 -15 31 -23 35 -18 3 5 -8 21 -23 36 -16 15 -31 23 -35 18z" id="svg_15"/>
 <path d="M5635 2540 c-8 -12 20 -24 35 -15 6 3 8 11 5 16 -8 12 -32 12 -40 -1z" id="svg_16"/>
 <path d="M5525 2530 c-8 -13 20 -24 41 -16 20 8 9 26 -16 26 -10 0 -22 -5 -25 -10z" id="svg_17"/>
 <path d="M6850 2491 c-6 -12 -6 -22 -1 -26 6 -3 15 3 21 14 6 12 6 22 1 26 -6 3 -15 -3 -21 -14z" id="svg_18"/>
 <path d="M2426 2442 c-3 -5 5 -19 18 -31 13 -13 26 -18 30 -13 3 5 -5 19 -18 31 -13 13 -26 18 -30 13z" id="svg_19"/>
 <path d="M2496 2382 c-3 -6 1 -15 8 -21 8 -7 17 -8 20 -3 3 6 -1 15 -8 21 -8 7 -17 8 -20 3z" id="svg_20"/>
 <path d="M2556 2332 c-3 -5 3 -17 13 -26 11 -10 22 -13 25 -8 3 5 -3 17 -13 26 -11 10 -22 13 -25 8z" id="svg_21"/>
 <path d="M2666 2242 c-3 -6 1 -15 8 -21 8 -7 17 -8 20 -3 3 6 -1 15 -8 21 -8 7 -17 8 -20 3z" id="svg_22"/>
 <path d="M2706 2212 c-3 -5 3 -17 13 -26 11 -10 22 -13 25 -8 3 5 -3 17 -13 26 -11 10 -22 13 -25 8z" id="svg_23"/>
 <path d="M2946 2032 c-3 -6 1 -15 8 -21 8 -7 17 -8 20 -3 3 6 -1 15 -8 21 -8 7 -17 8 -20 3z" id="svg_24"/>
 <path d="M3085 1931 c-3 -6 3 -15 14 -21 12 -6 22 -6 26 -1 3 6 -3 15 -14 21 -12 6 -22 6 -26 1z" id="svg_25"/>
 <path d="M3415 1721 c-3 -6 3 -15 14 -21 12 -6 22 -6 26 -1 3 6 -3 15 -14 21 -12 6 -22 6 -26 1z" id="svg_26"/>
 <path d="M3956 1481 c-4 -5 -2 -12 4 -16 5 -3 10 -3 10 1 0 3 6 1 14 -5 10 -8 16 -9 21 -1 3 5 4 11 1 11 -3 1 -9 2 -13 3 -5 1 -13 5 -20 9 -6 4 -14 3 -17 -2z" id="svg_27"/>
 <path d="M5395 1430 c-3 -5 -2 -10 2 -12 13 -7 33 -3 36 6 3 12 -31 17 -38 6z" id="svg_28"/>
 </g><g id="layer2" fill="#ffffff" stroke="none" class="selected" fill-opacity="1">
 <path d="M4220 6469 c-14 -6 -54 -9 -90 -8 -36 2 -71 0 -77 -4 -7 -5 -36 -8 -65 -8 -84 -1 -145 -6 -157 -13 -6 -4 -24 -6 -39 -5 -15 1 -35 -2 -44 -6 -10 -4 -25 -5 -33 -2 -8 4 -17 2 -21 -4 -3 -6 -18 -9 -32 -8 -15 1 -35 -2 -44 -6 -10 -4 -25 -5 -33 -2 -8 4 -17 1 -21 -4 -3 -6 -15 -9 -25 -6 -10 3 -22 1 -25 -5 -3 -5 -15 -8 -25 -5 -10 3 -22 1 -25 -5 -3 -5 -12 -7 -20 -4 -7 3 -16 0 -20 -5 -3 -6 -15 -9 -25 -6 -10 3 -22 1 -25 -5 -3 -5 -12 -7 -20 -4 -7 3 -16 1 -20 -5 -3 -6 -12 -8 -20 -5 -7 3 -16 1 -20 -5 -3 -6 -12 -8 -19 -5 -7 2 -16 2 -20 -2 -4 -4 -10 -7 -13 -7 -4 -1 -17 -7 -30 -14 -13 -7 -29 -10 -37 -8 -7 3 -18 0 -24 -6 -6 -6 -11 -7 -11 -3 0 5 -7 3 -15 -4 -9 -7 -18 -10 -22 -7 -3 4 -12 2 -20 -4 -7 -6 -13 -8 -13 -4 0 4 -7 2 -15 -5 -8 -7 -15 -9 -15 -5 0 4 -7 2 -15 -5 -8 -7 -15 -9 -15 -5 0 4 -7 2 -15 -5 -8 -7 -15 -9 -15 -5 0 4 -7 2 -15 -5 -8 -7 -15 -9 -15 -5 0 4 -11 0 -25 -9 -14 -9 -25 -14 -25 -10 0 4 -7 1 -15 -6 -8 -7 -15 -9 -15 -5 0 4 -11 0 -25 -9 -14 -9 -25 -13 -25 -10 0 4 -9 -1 -19 -10 -11 -10 -24 -15 -29 -12 -5 3 -21 -4 -36 -15 -14 -11 -29 -18 -34 -15 -4 2 -30 -8 -57 -24 -97 -56 -145 -80 -145 -74 0 4 -7 0 -16 -7 -9 -7 -23 -14 -31 -15 -8 -2 -25 -12 -38 -24 -13 -12 -30 -22 -38 -24 -9 -1 -25 -10 -36 -20 -10 -10 -27 -19 -36 -20 -9 -1 -20 -8 -24 -15 -5 -7 -16 -13 -25 -15 -10 -1 -21 -7 -24 -13 -9 -13 -55 -38 -65 -35 -4 1 -10 -5 -13 -13 -3 -8 -10 -12 -15 -9 -5 3 -12 -2 -15 -10 -3 -9 -10 -13 -15 -10 -5 3 -12 -2 -15 -10 -3 -9 -10 -13 -15 -10 -5 3 -12 -2 -15 -10 -3 -9 -10 -14 -14 -11 -5 3 -13 -3 -19 -12 -6 -10 -11 -14 -11 -10 0 4 -16 -8 -36 -28 -19 -19 -39 -33 -44 -30 -5 3 -14 -4 -20 -15 -6 -11 -15 -18 -20 -15 -5 3 -15 -4 -23 -15 -7 -11 -16 -17 -19 -14 -3 3 -16 -9 -28 -26 -12 -16 -25 -28 -29 -26 -4 3 -18 -8 -30 -25 -12 -16 -26 -27 -30 -24 -5 2 -21 -11 -36 -30 -14 -20 -30 -33 -34 -30 -5 2 -32 -23 -61 -56 -29 -33 -55 -57 -58 -54 -8 8 -182 -166 -176 -176 2 -4 -20 -29 -50 -55 -31 -26 -53 -51 -51 -55 3 -4 -13 -22 -35 -39 -22 -17 -38 -36 -35 -40 3 -5 -8 -18 -25 -30 -17 -12 -28 -25 -25 -30 3 -5 -4 -14 -15 -20 -11 -6 -18 -15 -15 -20 3 -5 -6 -17 -20 -26 -13 -9 -22 -20 -20 -25 3 -4 -4 -13 -15 -19 -11 -6 -18 -15 -15 -20 3 -5 -4 -14 -15 -20 -11 -6 -18 -15 -15 -20 3 -5 -4 -14 -15 -20 -11 -6 -18 -15 -15 -19 3 -5 -2 -12 -11 -15 -8 -3 -13 -10 -10 -15 3 -5 -1 -12 -10 -15 -9 -4 -14 -9 -11 -13 7 -7 -50 -94 -70 -106 -7 -5 -11 -12 -8 -17 3 -4 -2 -11 -11 -14 -8 -3 -13 -10 -10 -15 4 -5 -2 -17 -11 -27 -9 -9 -18 -23 -19 -31 -2 -8 -10 -20 -19 -27 -18 -13 -15 -18 165 -251 26 -33 133 -181 240 -330 357 -499 493 -672 726 -927 327 -357 711 -694 1078 -943 48 -33 113 -79 145 -101 31 -23 112 -75 181 -116 613 -369 1239 -497 1882 -388 65 11 130 25 145 31 16 6 42 13 58 16 51 7 265 83 360 127 300 137 527 295 755 525 272 273 449 572 533 896 112 430 21 836 -258 1151 -68 77 -215 205 -227 198 -4 -3 6 -28 23 -57 184 -311 219 -626 104 -928 -19 -49 -47 -111 -62 -137 -101 -176 -302 -372 -483 -472 -145 -80 -279 -129 -451 -166 -100 -22 -366 -24 -469 -5 -171 32 -334 93 -468 174 -350 211 -621 621 -714 1078 -33 164 -33 419 0 569 91 406 343 710 748 901 89 42 269 113 314 124 8 2 51 12 95 24 130 33 292 59 477 77 323 30 889 7 1257 -51 59 -10 98 -12 104 -6 10 10 0 34 -12 27 -4 -3 -35 22 -69 54 -34 32 -62 57 -62 54 0 -2 -44 30 -97 72 -174 136 -440 303 -653 409 -41 20 -83 44 -92 53 -10 8 -18 11 -18 7 0 -4 -9 0 -19 9 -11 10 -25 19 -33 20 -7 1 -28 10 -45 19 -18 10 -33 15 -33 12 0 -3 -11 2 -25 11 -14 9 -25 13 -25 10 0 -4 -10 0 -23 9 -12 8 -32 16 -42 18 -11 1 -26 6 -33 10 -22 14 -155 57 -160 52 -3 -3 -11 0 -19 6 -7 6 -13 8 -13 4 0 -4 -6 -2 -14 4 -8 6 -18 11 -22 10 -5 -1 -12 0 -16 1 -5 1 -11 3 -15 5 -5 1 -21 7 -36 13 -16 7 -32 10 -37 7 -5 -3 -12 0 -15 6 -4 5 -13 8 -21 5 -7 -3 -16 -1 -20 5 -3 6 -12 8 -20 5 -7 -3 -16 -1 -20 5 -3 6 -12 8 -20 5 -7 -3 -16 -1 -20 5 -3 6 -13 8 -21 5 -9 -4 -22 -1 -29 5 -7 6 -18 8 -23 5 -5 -4 -13 -1 -16 5 -4 6 -18 8 -30 5 -13 -3 -27 -1 -30 4 -4 6 -15 8 -25 5 -10 -3 -21 -1 -25 5 -4 7 -18 9 -30 6 -13 -3 -27 -1 -30 5 -4 6 -19 7 -35 4 -16 -4 -31 -2 -35 5 -4 6 -20 8 -40 4 -19 -3 -35 -1 -39 5 -5 7 -22 9 -45 5 -24 -4 -41 -2 -45 5 -5 7 -28 8 -65 5 -37 -4 -61 -3 -65 4 -4 7 -31 9 -75 5 -46 -4 -70 -2 -75 6 -9 14 -280 14 -316 0z" id="svg_29" fill="#ffffff" fill-opacity="1"/>
 </g></g></svg>